:SAMPLES-PER-SECOND 30
:FULLY-SPECIFIED
:DEGREES
307
root  81.7509 39.8891 -0.210865 -7.19764 -76.9995 11.875
RightUpLeg  -0.143067 -9.97608 -5.96745
RightLeg  8.17175 -12.0115 3.61606
RightFoot  -11.1005 -0.0747952 -0.336407
RightToes  -4.65663e-010 0 -3.6325e-017
Spine  11.6957 1.10091 6.31594
Spine1  3.32363 2.32261 -2.93626
HEad  9.21389 11.9015 -8.43809
LeftShoulder1  6.35835 -9.3985 -42.8096
LeftArm  -20.1127 21.2099 -25.8866
LeftForeArm  35.0822 -31.9714 -5.05414
LeftHand  -0.244104 0.0205437 5.32207
RightShoulder  3.99738 6.96357 32.2435
RightArm  -15.4981 -15.3259 34.346
RightForeArm  2.63344 21.2816 4.63715
RightHand  -2.17965 6.93524 -20.6337
LeftUpLeg  -16.2377 14.7164 -3.54967
LeftLeg  9.24758 23.8808 -1.78609
LeftFoot  1.98651 -0.377152 3.01382
LeftToes  -5.82109e-011 -4.83791e-012 -1.00937e-011
308
root  82.2628 39.9129 -0.257452 -11.0998 -78.1783 14.8503
RightUpLeg  -0.590225 -10.3932 -6.55773
RightLeg  9.15615 -10.3207 3.48119
RightFoot  -10.7269 -0.0688797 -0.739581
RightToes  -4.65663e-010 0 -3.6325e-017
Spine  12.2332 0.757581 5.01143
Spine1  3.26235 1.64147 -1.88598
HEad  9.14249 9.21458 -6.33061
LeftShoulder1  5.82016 -8.84499 -40.8074
LeftArm  -20.5555 20.5241 -24.0323
LeftForeArm  35.3946 -31.3158 -4.88378
LeftHand  -0.244104 0.0205437 5.32207
RightShoulder  3.71492 6.62421 30.7188
RightArm  -19.7211 -14.4148 31.9761
RightForeArm  1.72658 20.5202 4.55633
RightHand  -2.14991 6.48852 -21.0944
LeftUpLeg  -16.2916 16.6316 -4.80137
LeftLeg  13.0599 7.64274 0.550751
LeftFoot  -0.621662 0.190661 -2.00381
LeftToes  -5.82109e-011 -4.83791e-012 -1.00937e-011
309
root  82.6866 39.9275 -0.236915 -14.1461 -79.4398 17.3129
RightUpLeg  -1.10975 -10.6796 -6.93574
RightLeg  9.80509 -8.74106 3.51705
RightFoot  -10.2997 -0.0645289 -0.574025
RightToes  -4.65663e-010 0 -3.6325e-017
Spine  12.2034 0.588482 4.92945
Spine1  3.00553 1.53089 -2.10107
HEad  10.2656 5.41496 -4.28677
LeftShoulder1  5.31611 -8.35503 -38.6198
LeftArm  -20.5341 19.4889 -21.1628
LeftForeArm  35.8587 -29.6777 -4.48417
LeftHand  -0.244104 0.0205437 5.32207
RightShoulder  3.32062 5.96656 29.0758
RightArm  -23.1357 -14.1934 28.9131
RightForeArm  0.25959 19.9746 4.47713
RightHand  -2.17174 6.23478 -21.7417
LeftUpLeg  -15.6966 13.6994 -4.38474
LeftLeg  17.4788 3.74034 1.90607
LeftFoot  -4.57585 0.225754 -3.21332
LeftToes  -5.82109e-011 -4.83791e-012 -1.00937e-011
310
root  83.04 39.9462 -0.167707 -17.0233 -81.1264 19.8166
RightUpLeg  -1.66443 -10.742 -7.03625
RightLeg  10.0321 -7.09116 3.6766
RightFoot  -9.76377 -0.0575572 -0.612348
RightToes  -4.65663e-010 0 -3.6325e-017
Spine  11.9523 0.727878 5.5639
Spine1  2.41428 1.96173 -3.07695
HEad  11.736 0.57917 -3.44074
LeftShoulder1  4.81298 -7.90468 -36.0747
LeftArm  -20.3388 18.5359 -18.296
LeftForeArm  34.1493 -27.2988 -4.04775
LeftHand  -0.244104 0.0205437 5.32207
RightShoulder  2.94133 5.24348 27.6035
RightArm  -25.0753 -14.1727 24.637
RightForeArm  -1.41721 18.9258 4.3379
RightHand  -2.22761 6.45698 -21.8835
LeftUpLeg  -14.3845 10.7897 -3.43641
LeftLeg  21.2376 6.44672 3.0715
LeftFoot  -6.77555 0.136487 -2.43424
LeftToes  -5.82109e-011 -4.83791e-012 -1.00937e-011
311
root  83.3183 39.9554 -0.0673259 -21.0556 -83.0818 23.3986
RightUpLeg  -2.09256 -10.5727 -6.93103
RightLeg  10.2884 -5.34479 3.71079
RightFoot  -9.37797 -0.0500662 -0.787767
RightToes  -4.65663e-010 0 -3.6325e-017
Spine  11.561 1.00811 5.93573
Spine1  1.75431 2.3915 -3.54546
HEad  13.1947 -2.84597 -3.52063
LeftShoulder1  4.25976 -7.30404 -33.3248
LeftArm  -20.68 18.188 -15.7748
LeftForeArm  30.8924 -24.8936 -3.70306
LeftHand  -0.244104 0.0205437 5.32207
RightShoulder  2.62255 4.74547 25.7039
RightArm  -26.0335 -13.6274 19.9932
RightForeArm  -2.96742 16.9881 4.03422
RightHand  -2.23522 6.73478 -21.472
LeftUpLeg  -11.8809 11.3985 -2.9568
LeftLeg  22.3425 7.11808 3.52559
LeftFoot  -6.94645 0.142102 -2.61447
LeftToes  -5.82109e-011 -4.83791e-012 -1.00937e-011
312
root  83.5218 39.95 0.0559443 -24.9904 -84.909 26.8147
RightUpLeg  -2.25636 -10.242 -6.64037
RightLeg  10.5267 -3.87292 3.69077
RightFoot  -9.20573 -0.0507205 -0.624951
RightToes  -4.65663e-010 0 -3.6325e-017
Spine  10.8546 1.06577 5.59511
Spine1  1.39123 2.23868 -2.68233
HEad  14.2041 -3.7114 -4.06039
LeftShoulder1  3.5446 -6.16473 -30.5717
LeftArm  -22.069 18.5305 -13.625
LeftForeArm  29.7675 -23.1058 -3.38109
LeftHand  -0.244104 0.0205437 5.32207
RightShoulder  2.25367 4.41598 22.1726
RightArm  -27.0189 -12.1662 16.7227
RightForeArm  -3.88841 14.5615 3.53124
RightHand  -2.1725 6.7119 -20.9295
LeftUpLeg  -8.22598 13.2406 -2.37168
LeftLeg  20.0725 5.29429 2.53971
LeftFoot  -7.20852 0.164461 -3.37235
LeftToes  -5.82109e-011 -4.83791e-012 -1.00937e-011
313
root  83.6753 39.9449 0.183467 -24.411 -86.2519 25.7713
RightUpLeg  -2.10237 -9.89419 -6.16594
RightLeg  10.372 -3.02457 3.7482
RightFoot  -9.01269 -0.0558075 -0.259758
RightToes  -4.65663e-010 0 -3.6325e-017
Spine  10.0568 1.15441 5.30246
Spine1  0.730198 2.12046 -2.05815
HEad  15.0918 -3.6791 -3.78267
LeftShoulder1  2.91397 -5.42078 -26.4348
LeftArm  -22.5604 19.2369 -12.4488
LeftForeArm  30.6507 -21.5283 -2.96951
LeftHand  -0.244104 0.0205437 5.32207
RightShoulder  1.78922 3.50778 19.0299
RightArm  -27.6803 -10.5318 13.586
RightForeArm  -4.77886 12.5872 3.05437
RightHand  -2.12329 6.69 -20.5103
LeftUpLeg  -4.50122 14.225 -1.56076
LeftLeg  15.7091 4.06322 1.23073
LeftFoot  -8.46473 0.126861 -2.93758
LeftToes  -5.82109e-011 -4.83791e-012 -1.00937e-011
314
root  83.8192 39.9645 0.27674 -17.6238 -86.7359 18.5994
RightUpLeg  -1.73548 -9.5548 -5.64124
RightLeg  9.83723 -3.04647 3.68993
RightFoot  -8.62445 -0.0570376 -0.0581285
RightToes  -4.65663e-010 0 -3.6325e-017
Spine  9.33184 1.01957 4.23863
Spine1  0.0204674 1.55151 -0.607832
HEad  16.022 -3.50138 -3.47354
LeftShoulder1  2.24146 -4.37397 -22.0358
LeftArm  -20.5172 19.5577 -12.169
LeftForeArm  27.0495 -20.0892 -2.885
LeftHand  -0.244104 0.0205437 5.32207
RightShoulder  1.32895 2.42624 15.6517
RightArm  -28.1504 -8.75317 11.0449
RightForeArm  -5.70103 11.3593 2.78248
RightHand  -2.17162 7.02994 -20.4086
LeftUpLeg  -1.71748 11.1648 -0.49126
LeftLeg  11.3723 7.62137 -0.396946
LeftFoot  -9.47605 0.0745988 -1.16948
LeftToes  -5.82109e-011 -4.83791e-012 -1.00937e-011
315
root  83.9788 40.0239 0.310157 -12.1781 -86.2125 12.8973
RightUpLeg  -1.39015 -9.13998 -5.32581
RightLeg  9.21623 -3.96498 3.33596
RightFoot  -8.11097 -0.0559243 0.0324957
RightToes  -4.65663e-010 0 -3.6325e-017
Spine  8.90157 0.87577 2.24061
Spine1  -0.944906 0.877796 1.32171
HEad  17.0549 -3.96953 -2.85023
LeftShoulder1  1.72564 -3.58388 -17.6961
LeftArm  -17.2762 19.2466 -12.1451
LeftForeArm  17.3382 -18.6648 -3.30625
LeftHand  -0.244104 0.0205437 5.32207
RightShoulder  0.924047 1.14101 12.941
RightArm  -28.2673 -7.56104 8.48572
RightForeArm  -7.34823 11.3134 2.88054
RightHand  -2.26794 7.32881 -20.8018
LeftUpLeg  -0.334104 7.6494 0.0421152
LeftLeg  8.3802 11.3623 -1.99672
LeftFoot  -9.02164 0.04483 0.427438
LeftToes  -5.82109e-011 -4.83791e-012 -1.00937e-011
316
root  84.1463 40.0983 0.309557 -11.6357 -85.1779 12.3058
RightUpLeg  -1.28023 -8.79506 -5.29193
RightLeg  8.75037 -5.22684 2.89083
RightFoot  -7.65876 -0.056712 0.148873
RightToes  -4.65663e-010 0 -3.6325e-017
Spine  8.38502 0.709088 0.395606
Spine1  -1.67626 0.403352 2.41429
HEad  18.0294 -4.88809 -1.76453
LeftShoulder1  1.3737 -3.21399 -13.3466
LeftArm  -16.6253 18.28 -11.7908
LeftForeArm  15.2272 -15.7554 -5.3718
LeftHand  -0.244104 0.0205437 5.32207
RightShoulder  0.599154 -0.226609 11.0356
RightArm  -28.4483 -7.22024 6.23449
RightForeArm  -9.1144 12.244 3.14505
RightHand  -2.33337 7.18257 -21.6183
LeftUpLeg  0.0734514 6.11705 0.0238062
LeftLeg  6.81122 12.0251 -2.96492
LeftFoot  -7.73296 0.0157488 0.996734
LeftToes  -5.82109e-011 -4.83791e-012 -1.00937e-011
317
root  84.298 40.1507 0.327554 -11.7824 -84.4478 12.4875
RightUpLeg  -1.32571 -8.64705 -5.3735
RightLeg  8.43337 -6.02848 2.67159
RightFoot  -7.32084 -0.0561314 0.186691
RightToes  -4.65663e-010 0 -3.6325e-017
Spine  7.96423 0.475957 -0.825138
Spine1  -2.36779 -0.0364111 3.2445
HEad  18.9097 -5.31707 -1.17302
LeftShoulder1  1.08009 -2.60036 -10.6071
LeftArm  -19.7645 18.0744 -7.54748
LeftForeArm  27.9854 -33.6773 16.226
LeftHand  -0.244104 0.0205437 5.32207
RightShoulder  0.344436 -1.28214 8.26121
RightArm  -28.9383 -7.26104 5.20874
RightForeArm  -9.32407 13.1459 3.24533
RightHand  -2.36127 6.8979 -22.3483
LeftUpLeg  0.261613 5.01021 -0.189573
LeftLeg  5.74587 12.2203 -3.39305
LeftFoot  -6.87277 -0.00527111 1.17485
LeftToes  -5.82109e-011 -4.83791e-012 -1.00937e-011
318
root  84.4194 40.1761 0.386117 -12.1061 -84.5793 12.6691
RightUpLeg  -1.25518 -8.61296 -5.44619
RightLeg  8.14794 -5.89733 2.69785
RightFoot  -7.01556 -0.0529985 0.136353
RightToes  -4.65663e-010 0 -3.6325e-017
Spine  7.64641 1.02783 0.0604611
Spine1  -3.25879 0.947125 0.98004
HEad  20.0178 -7.4573 0.203505
LeftShoulder1  0.976178 -3.74786 -5.55333
LeftArm  -44.9019 24.5434 -3.91954
LeftForeArm  -99.0718 -68.2207 -137.852
LeftHand  -0.244104 0.0205437 5.32207
RightShoulder  0.130254 -2.70574 8.59663
RightArm  -28.2905 -7.74866 1.78286
RightForeArm  -9.29481 13.5205 3.31157
RightHand  -2.3701 6.837 -22.5363
LeftUpLeg  0.725213 4.20769 -0.317493
LeftLeg  4.66798 13.2345 -3.65207
LeftFoot  -6.59984 -0.0327727 1.56995
LeftToes  -5.82109e-011 -4.83791e-012 -1.00937e-011
319
root  84.5147 40.1886 0.466806 -13.8371 -85.4254 14.0591
RightUpLeg  -1.04244 -8.60104 -5.5261
RightLeg  7.90416 -5.01731 2.78825
RightFoot  -6.71737 -0.056274 0.189888
RightToes  -4.65663e-010 0 -3.6325e-017
Spine  7.20708 1.21914 0.174728
Spine1  -3.13027 1.13909 0.927522
HEad  20.393 -7.5985 -0.124372
LeftShoulder1  0.714572 -2.53937 -3.80423
LeftArm  -133.615 30.3012 -14.5445
LeftForeArm  -43.4261 -64.3218 -162.244
LeftHand  -0.244104 0.0205437 5.32207
RightShoulder  0.0410298 -3.20187 6.12212
RightArm  -28.5863 -6.91308 0.866205
RightForeArm  -9.1048 12.857 3.13256
RightHand  -2.44589 7.08522 -22.7852
LeftUpLeg  1.37964 4.05797 -0.295655
LeftLeg  3.8362 14.3542 -3.99626
LeftFoot  -6.38031 -0.0544667 1.9093
LeftToes  -5.82109e-011 -4.83791e-012 -1.00937e-011
320
root  84.5963 40.1988 0.539881 -17.3123 -86.3309 17.2362
RightUpLeg  -0.908376 -8.61337 -5.64924
RightLeg  7.74904 -4.04896 2.86003
RightFoot  -6.44224 -0.0655311 0.33407
RightToes  -4.65663e-010 0 -3.6325e-017
Spine  6.48178 1.34903 0.150298
Spine1  -2.51597 1.25168 0.968074
HEad  20.7045 -7.09593 -0.513628
LeftShoulder1  0.501013 -1.23994 -2.3535
LeftArm  140.38 20.0661 -7.49876
LeftForeArm  83.1554 -62.0252 -153.366
LeftHand  -0.244104 0.0205437 5.32207
RightShoulder  0.0144871 -3.38571 4.31983
RightArm  -29.023 -5.80783 0.0692066
RightForeArm  -10.536 12.1737 3.04953
RightHand  -2.63214 7.55689 -23.5916
LeftUpLeg  1.88124 4.19893 -0.289994
LeftLeg  3.38568 14.9902 -4.29074
LeftFoot  -6.09427 -0.0558553 1.95651
LeftToes  -5.82109e-011 -4.83791e-012 -1.00937e-011
321
root  84.6754 40.2089 0.588993 -20.987 -86.8346 20.7849
RightUpLeg  -0.951148 -8.64626 -5.77262
RightLeg  7.67265 -3.48644 2.91844
RightFoot  -6.18395 -0.0645869 0.318547
RightToes  -4.65663e-010 0 -3.6325e-017
Spine  5.70011 1.32078 -0.0786654
Spine1  -1.92173 1.18359 1.13369
HEad  21.0818 -6.27923 -0.717319
LeftShoulder1  0.344085 -0.144447 -1.08319
LeftArm  171.357 22.3979 -9.88097
LeftForeArm  57.8343 -56.372 -161.887
LeftHand  -0.244104 0.0205437 5.32207
RightShoulder  -0.0112273 -3.60551 2.93051
RightArm  -29.5427 -4.93146 -0.175027
RightForeArm  -11.9768 11.9483 3.06365
RightHand  -2.89366 8.29349 -24.5132
LeftUpLeg  2.0935 4.13207 -0.445284
LeftLeg  3.0756 15.4535 -4.3412
LeftFoot  -5.92186 -0.0589016 2.04222
LeftToes  -5.82109e-011 -4.83791e-012 -1.00937e-011
